<svg xmlns="http://www.w3.org/2000/svg" viewBox="0 0 113 110" width="113" height="110" preserveAspectRatio="xMidYMid meet" style="width: 100%; height: 100%; transform: translate3d(0px, 0px, 0px);"><defs><clipPath id="__lottie_element_30"><rect width="113" height="110" x="0" y="0"/></clipPath><filter id="__lottie_element_32" filterUnits="objectBoundingBox" x="0%" y="0%" width="100%" height="100%"><feComponentTransfer in="SourceGraphic"><feFuncA type="table" tableValues="1.0 0.0"/></feComponentTransfer></filter><mask id="__lottie_element_31" mask-type="alpha"><g filter="url(#__lottie_element_32)"><rect width="113" height="110" x="0" y="0" fill="#ffffff" opacity="0"/><g transform="matrix(0.8650000095367432,0,0,0.8999999761581421,59.760475158691406,54.97352981567383)" opacity="1" style="display: block;"><g opacity="1" transform="matrix(1,0,0,1,0,0)"><path fill="rgb(255,255,255)" fill-opacity="1" d=" M-8.871999740600586,-11.869000434875488 C-8.871999740600586,-11.869000434875488 13.213000297546387,-0.4009999930858612 13.213000297546387,-0.4009999930858612 C13.213000297546387,-0.4009999930858612 -8.871999740600586,11.142000198364258 -8.871999740600586,11.142000198364258 C-8.871999740600586,11.142000198364258 -8.871999740600586,-11.869000434875488 -8.871999740600586,-11.869000434875488z"/></g></g></g></mask></defs><g clip-path="url(#__lottie_element_30)"><g mask="url(#__lottie_element_31)" style="display: block;"><g transform="matrix(0.8999999761581421,0,0,0.8999999761581421,56.499900817871094,55)" opacity="1"><g opacity="1" transform="matrix(1,0,0,1,0,0)"><path fill="rgb(255,255,255)" fill-opacity="1" d=" M19.058000564575195,28.42799949645996 C19.058000564575195,28.42799949645996 -20.06100082397461,28.42799949645996 -20.06100082397461,28.42799949645996 C-38.4379997253418,28.42799949645996 -41.470001220703125,21.5939998626709 -41.470001220703125,7.328999996185303 C-41.470001220703125,7.328999996185303 -41.470001220703125,-7.328999996185303 -41.470001220703125,-7.328999996185303 C-41.470001220703125,-22.32900047302246 -41.470001220703125,-28.42799949645996 -20.06100082397461,-28.42799949645996 C-20.06100082397461,-28.42799949645996 19.058000564575195,-28.42799949645996 19.058000564575195,-28.42799949645996 C39.65800094604492,-28.42799949645996 40.46699905395508,-23.117000579833984 40.46699905395508,-7.328999996185303 C40.46699905395508,-7.328999996185303 40.46699905395508,7.328999996185303 40.46699905395508,7.328999996185303 C40.46699905395508,24.433000564575195 35.65700149536133,28.42799949645996 19.058000564575195,28.42799949645996z"/></g></g></g></g></svg>