<svg xmlns="http://www.w3.org/2000/svg" viewBox="0 0 1280 720" width="1280" height="720" preserveAspectRatio="xMidYMid meet" style="width: 100%; height: 100%; transform: translate3d(0px, 0px, 0px);"><defs><clipPath id="__lottie_element_7"><rect width="1280" height="720" x="0" y="0"/></clipPath></defs><g clip-path="url(#__lottie_element_7)"><g transform="matrix(1,0,0,1,640,360)" opacity="1" style="display: block;"><g opacity="1" transform="matrix(1,0,0,1,-1,-5)"><path fill="rgb(234,29,46)" fill-opacity="1" d="M0 0"/><path stroke-linecap="butt" stroke-linejoin="miter" fill-opacity="0" stroke-miterlimit="4" stroke="rgb(255,255,255)" stroke-opacity="1" stroke-width="60" d=" M250,-150 C250,-150 250,150 250,150 C250,205.19000244140625 205.19000244140625,250 150,250 C150,250 -150,250 -150,250 C-205.19000244140625,250 -250,205.19000244140625 -250,150 C-250,150 -250,-150 -250,-150 C-250,-205.19000244140625 -205.19000244140625,-250 -150,-250 C-150,-250 150,-250 150,-250 C205.19000244140625,-250 250,-205.19000244140625 250,-150z"/></g></g><g style="display: block;" transform="matrix(1.924739956855774,0,0,1.924739956855774,638.0752563476562,350.3763122558594)" opacity="1"><g opacity="1" transform="matrix(1,0,0,1,1,5)"><path fill="rgb(29,131,197)" fill-opacity="0" d=" M0,-173 C95.47869873046875,-173 173,-95.47869873046875 173,0 C173,95.47869873046875 95.47869873046875,173 0,173 C-95.47869873046875,173 -173,95.47869873046875 -173,0 C-173,-95.47869873046875 -95.47869873046875,-173 0,-173z"/><path stroke-linecap="butt" stroke-linejoin="miter" fill-opacity="0" stroke-miterlimit="4" stroke="rgb(255,255,255)" stroke-opacity="1" stroke-width="60" d="M0 0"/></g></g><g transform="matrix(1,0,0,1,646,368)" opacity="1" style="display: block;"><g opacity="1" transform="matrix(1,0,0,1,-7,-13)"><path fill="rgb(234,29,46)" fill-opacity="1" d="M0 0"/><path stroke-linecap="round" stroke-linejoin="miter" fill-opacity="0" stroke-miterlimit="4" stroke="rgb(255,0,160)" stroke-opacity="1" stroke-width="60" d=" M250,-150 C250,-150 250,-118.96900177001953 250,-76.86799621582031"/></g></g><g transform="matrix(1,0,0,1,640,360)" opacity="1" style="display: block;"><g opacity="1" transform="matrix(1,0,0,1,142,-152)"><path fill="rgb(255,255,255)" fill-opacity="1" d=" M0,-40 C22.076000213623047,-40 40,-22.076000213623047 40,0 C40,22.076000213623047 22.076000213623047,40 0,40 C-22.076000213623047,40 -40,22.076000213623047 -40,0 C-40,-22.076000213623047 -22.076000213623047,-40 0,-40z"/><path stroke-linecap="butt" stroke-linejoin="miter" fill-opacity="0" stroke-miterlimit="4" stroke="rgb(255,255,255)" stroke-opacity="1" stroke-width="9" d=" M0,-40 C22.076000213623047,-40 40,-22.076000213623047 40,0 C40,22.076000213623047 22.076000213623047,40 0,40 C-22.076000213623047,40 -40,22.076000213623047 -40,0 C-40,-22.076000213623047 -22.076000213623047,-40 0,-40z"/></g></g><g transform="matrix(1,0,0,1,642,374)" opacity="1" style="display: block;"><g opacity="1" transform="matrix(1,0,0,1,-2,-14)"><path fill="rgb(234,29,46)" fill-opacity="1" d="M0 0"/><path stroke-linecap="butt" stroke-linejoin="miter" fill-opacity="0" stroke-miterlimit="4" stroke="rgb(255,255,255)" stroke-opacity="1" stroke-width="60" d=" M0,-100 C55.189998626708984,-100 100,-55.189998626708984 100,0 C100,55.189998626708984 55.189998626708984,100 0,100 C-55.189998626708984,100 -100,55.189998626708984 -100,0 C-100,-55.189998626708984 -55.189998626708984,-100 0,-100z"/></g></g><g style="display: none;" transform="matrix(1.5448212623596191,0,0,1.5448212623596191,666.261962890625,343.0069580078125)" opacity="0.0007584893497767098"><g opacity="1" transform="matrix(1,0,0,1,-17,11)"><path fill="rgb(0,77,137)" fill-opacity="1" d="M0 0"/><path stroke-linecap="butt" stroke-linejoin="miter" fill-opacity="0" stroke-miterlimit="4" stroke="rgb(0,82,139)" stroke-opacity="1" stroke-width="9" d=" M0,-159 C87.7520980834961,-159 159,-87.7520980834961 159,0 C159,87.7520980834961 87.7520980834961,159 0,159 C-87.7520980834961,159 -159,87.7520980834961 -159,0 C-159,-87.7520980834961 -87.7520980834961,-159 0,-159z"/></g></g><g style="display: none;" transform="matrix(1.4374030828475952,0,0,1.4374030828475952,629.9381713867188,361.4374084472656)" opacity="0.0006203012212422721"><g opacity="1" transform="matrix(1,0,0,1,7,-1)"><path fill="rgb(234,29,46)" fill-opacity="1" d="M0 0"/><path stroke-linecap="butt" stroke-linejoin="miter" fill-opacity="0" stroke-miterlimit="4" stroke="rgb(29,131,197)" stroke-opacity="1" stroke-width="9" d=" M0,-117 C64.57230377197266,-117 117,-64.57230377197266 117,0 C117,64.57230377197266 64.57230377197266,117 0,117 C-64.57230377197266,117 -117,64.57230377197266 -117,0 C-117,-64.57230377197266 -64.57230377197266,-117 0,-117z"/></g></g></g></svg>