<svg xmlns="http://www.w3.org/2000/svg" viewBox="0 0 156 156" width="156" height="156" preserveAspectRatio="xMidYMid meet" style="width: 100%; height: 100%; transform: translate3d(0px, 0px, 0px);"><defs><clipPath id="__lottie_element_2"><rect width="156" height="156" x="0" y="0"/></clipPath></defs><g clip-path="url(#__lottie_element_2)"><g transform="matrix(3.0271100997924805,0,0,3.0271100997924805,64.93999481201172,50.77254867553711)" opacity="1" style="display: block;"><g opacity="1" transform="matrix(1,0,0,1,4.314000129699707,8.994999885559082)"><path fill="rgb(255,255,255)" fill-opacity="1" d=" M4.064000129699707,-3.0850000381469727 C4.064000129699707,-3.0850000381469727 1.305999994277954,-3.0850000381469727 1.305999994277954,-3.0850000381469727 C1.305999994277954,-3.0850000381469727 1.305999994277954,-4.89900016784668 1.305999994277954,-4.89900016784668 C1.305999994277954,-5.589000225067139 1.7419999837875366,-5.732999801635742 2.069000005722046,-5.732999801635742 C2.069000005722046,-5.732999801635742 4.0279998779296875,-5.732999801635742 4.0279998779296875,-5.732999801635742 C4.0279998779296875,-5.732999801635742 4.0279998779296875,-8.744999885559082 4.0279998779296875,-8.744999885559082 C4.0279998779296875,-8.744999885559082 1.3420000076293945,-8.744999885559082 1.3420000076293945,-8.744999885559082 C-1.6319999694824219,-8.744999885559082 -2.322000026702881,-6.495999813079834 -2.322000026702881,-5.079999923706055 C-2.322000026702881,-5.079999923706055 -2.322000026702881,-3.0850000381469727 -2.322000026702881,-3.0850000381469727 C-2.322000026702881,-3.0850000381469727 -4.064000129699707,-3.0850000381469727 -4.064000129699707,-3.0850000381469727 C-4.064000129699707,-3.0850000381469727 -4.064000129699707,0 -4.064000129699707,0 C-4.064000129699707,0 -2.322000026702881,0 -2.322000026702881,0 C-2.322000026702881,0 -2.322000026702881,8.744999885559082 -2.322000026702881,8.744999885559082 C-2.322000026702881,8.744999885559082 1.305999994277954,8.744999885559082 1.305999994277954,8.744999885559082 C1.305999994277954,8.744999885559082 1.305999994277954,0 1.305999994277954,0 C1.305999994277954,0 3.7739999294281006,0 3.7739999294281006,0 C3.7739999294281006,0 4.064000129699707,-3.0850000381469727 4.064000129699707,-3.0850000381469727z"/></g></g></g></svg>