<svg xmlns="http://www.w3.org/2000/svg" viewBox="0 0 113 110" width="113" height="110" preserveAspectRatio="xMidYMid meet" style="width: 100%; height: 100%; transform: translate3d(0px, 0px, 0px);"><defs><clipPath id="__lottie_element_39"><rect width="113" height="110" x="0" y="0"/></clipPath></defs><g clip-path="url(#__lottie_element_39)"><g transform="matrix(0.23999999463558197,0,0,0.23999996483325958,194.4718780517578,-49.51166534423828)" opacity="1" style="display: block;"><g opacity="1" transform="matrix(1,0,0,1,0,0)"><path fill="rgb(255,255,255)" fill-opacity="1" d=" M-717.9249877929688,378.58099365234375 C-717.9249877929688,378.58099365234375 -657.5,378.58099365234375 -657.5,378.58099365234375 C-657.5,378.58099365234375 -657.5,572.8070068359375 -657.5,572.8070068359375 C-657.5,572.8070068359375 -717.9249877929688,572.8070068359375 -717.9249877929688,572.8070068359375 C-717.9249877929688,572.8070068359375 -717.9249877929688,378.58099365234375 -717.9249877929688,378.58099365234375z"/></g></g><g transform="matrix(0.23999999463558197,0,0,0.23999999463558197,194.4718780517578,-49.51211929321289)" opacity="1" style="display: block;"><g opacity="1" transform="matrix(1,0,0,1,0,0)"><path fill="rgb(255,255,255)" fill-opacity="1" d=" M-687.6959838867188,282.031005859375 C-668.385986328125,282.031005859375 -652.7080078125,297.7139892578125 -652.7080078125,317.0350036621094 C-652.7080078125,336.36199951171875 -668.385986328125,352.04400634765625 -687.6959838867188,352.04400634765625 C-707.0830078125,352.04400634765625 -722.7160034179688,336.36199951171875 -722.7160034179688,317.0350036621094 C-722.7160034179688,297.7139892578125 -707.0830078125,282.031005859375 -687.6959838867188,282.031005859375"/></g></g><g transform="matrix(0.23999999463558197,0,0,0.23999999463558197,194.4718017578125,-49.51216125488281)" opacity="1" style="display: block;"><g opacity="1" transform="matrix(1,0,0,1,0,0)"><path fill="rgb(255,255,255)" fill-opacity="1" d=" M-619.6309814453125,378.58099365234375 C-619.6309814453125,378.58099365234375 -561.7670288085938,378.58099365234375 -561.7670288085938,378.58099365234375 C-561.7670288085938,378.58099365234375 -561.7670288085938,405.13299560546875 -561.7670288085938,405.13299560546875 C-561.7670288085938,405.13299560546875 -560.9390258789062,405.13299560546875 -560.9390258789062,405.13299560546875 C-552.8909912109375,389.864013671875 -533.1939697265625,373.760986328125 -503.82598876953125,373.760986328125 C-442.70599365234375,373.760986328125 -431.4100036621094,413.97698974609375 -431.4100036621094,466.2869873046875 C-431.4100036621094,466.2869873046875 -431.4100036621094,572.8070068359375 -431.4100036621094,572.8070068359375 C-431.4100036621094,572.8070068359375 -491.7690124511719,572.8070068359375 -491.7690124511719,572.8070068359375 C-491.7690124511719,572.8070068359375 -491.7690124511719,478.3550109863281 -491.7690124511719,478.3550109863281 C-491.7690124511719,455.8320007324219 -492.1570129394531,426.8559875488281 -523.135986328125,426.8559875488281 C-554.5460205078125,426.8559875488281 -559.3380126953125,451.4049987792969 -559.3380126953125,476.7430114746094 C-559.3380126953125,476.7430114746094 -559.3380126953125,572.8070068359375 -559.3380126953125,572.8070068359375 C-559.3380126953125,572.8070068359375 -619.6309814453125,572.8070068359375 -619.6309814453125,572.8070068359375 C-619.6309814453125,572.8070068359375 -619.6309814453125,378.58099365234375 -619.6309814453125,378.58099365234375z"/></g></g></g></svg>